# xmcd CD database file
#
# Track frame offsets:
#	150
#	16697
#	46945
#	66660
#	87864
#	117784
#	156482
#	175111
#	200077
#	222390
#	243006
#
# Disc length: 3483 seconds
#
# Revision: 0
# Processed by: cddbd v1.5.1PL2 Copyright (c) Steve Scherf et al.
# Submitted via: CDex 1.51
#
DISCID=940d990b
DTITLE=The Cadillac Joe Band - You Need A Big Organ To Play The Blues
DYEAR=2004
DGENRE=Blues
TTITLE0=I Know The Way
TTITLE1=A Man With Lots Of Money
TTITLE2=The Only Way I Go
TTITLE3=What I Know
TTITLE4=Get Up
TTITLE5=My Turn
TTITLE6=Funky Grandma
TTITLE7=You Reap What You Saw
TTITLE8=Don't You Know
TTITLE9=Burnin' Rice
TTITLE10=Treat Me Like You Like Me
EXTD=YEAR: 2004
EXTT0=
EXTT1=
EXTT2=
EXTT3=
EXTT4=
EXTT5=
EXTT6=
EXTT7=
EXTT8=
EXTT9=
EXTT10=
PLAYORDER=
